<?xml version="1.0" encoding="UTF-8" standalone="no"?>
<!DOCTYPE svg PUBLIC "-//W3C//DTD SVG 1.1//EN" "http://www.w3.org/Graphics/SVG/1.1/DTD/svg11.dtd">
<svg width="100%" height="100%" viewBox="0 0 1100 100" version="1.1" xmlns="http://www.w3.org/2000/svg" xmlns:xlink="http://www.w3.org/1999/xlink" xml:space="preserve" xmlns:serif="http://www.serif.com/" style="fill-rule:evenodd;clip-rule:evenodd;stroke-linejoin:round;stroke-miterlimit:1.41421;">
    <g id="frames">
        <g id="box" transform="matrix(1.00211,0,0,1.00153,-0.252062,-0.0876475)">
            <rect x="0.252" y="0.088" width="99.789" height="99.848" style="fill:none;"/>
        </g>
        <g id="box1" serif:id="box" transform="matrix(1.00211,0,0,1.00153,99.7479,-0.0876475)">
            <rect x="0.252" y="0.088" width="99.789" height="99.848" style="fill:none;"/>
        </g>
        <g id="box2" serif:id="box" transform="matrix(1.00211,0,0,1.00153,199.748,-0.0876475)">
            <rect x="0.252" y="0.088" width="99.789" height="99.848" style="fill:none;"/>
        </g>
        <g id="box3" serif:id="box" transform="matrix(1.00211,0,0,1.00153,299.748,-0.0876475)">
            <rect x="0.252" y="0.088" width="99.789" height="99.848" style="fill:none;"/>
        </g>
        <g id="box4" serif:id="box" transform="matrix(1.00211,0,0,1.00153,399.748,-0.0876475)">
            <rect x="0.252" y="0.088" width="99.789" height="99.848" style="fill:none;"/>
        </g>
        <g id="box5" serif:id="box" transform="matrix(1.00211,0,0,1.00153,499.748,-0.0876475)">
            <rect x="0.252" y="0.088" width="99.789" height="99.848" style="fill:none;"/>
        </g>
        <g id="box6" serif:id="box" transform="matrix(1.00211,0,0,1.00153,599.748,-0.0876475)">
            <rect x="0.252" y="0.088" width="99.789" height="99.848" style="fill:none;"/>
        </g>
        <g id="box7" serif:id="box" transform="matrix(1.00211,0,0,1.00153,699.748,-0.0876475)">
            <rect x="0.252" y="0.088" width="99.789" height="99.848" style="fill:none;"/>
        </g>
        <g id="box8" serif:id="box" transform="matrix(1.00211,0,0,1.00153,799.748,-0.0876475)">
            <rect x="0.252" y="0.088" width="99.789" height="99.848" style="fill:none;"/>
        </g>
        <g id="box9" serif:id="box" transform="matrix(1.00211,0,0,1.00153,899.748,-0.0876475)">
            <rect x="0.252" y="0.088" width="99.789" height="99.848" style="fill:none;"/>
        </g>
        <g id="box10" serif:id="box" transform="matrix(1.00211,0,0,1.00153,999.748,-0.0876475)">
            <rect x="0.252" y="0.088" width="99.789" height="99.848" style="fill:none;"/>
        </g>
    </g>
    <g transform="matrix(0.898199,0,0,0.12493,104.856,78.7812)">
        <g id="f2">
            <g>
                <rect x="50.261" y="10.112" width="11.133" height="80.045" style="fill:rgb(128,128,128);"/>
                <path d="M61.394,90.157L50.261,90.157L50.261,10.112L61.394,10.112L61.394,90.157ZM51.374,18.117L51.374,82.152L60.281,82.152L60.281,18.117L51.374,18.117Z"/>
            </g>
        </g>
    </g>
    <g transform="matrix(0.898199,0,0,0.249861,204.856,67.5179)">
        <g id="f3">
            <g>
                <rect x="50.261" y="10.112" width="11.133" height="80.045" style="fill:rgb(128,128,128);"/>
                <path d="M61.394,90.157L50.261,90.157L50.261,10.112L61.394,10.112L61.394,90.157ZM51.374,14.114L51.374,86.154L60.281,86.154L60.281,14.114L51.374,14.114Z"/>
            </g>
        </g>
    </g>
    <g transform="matrix(0.898199,0,0,0.374791,304.856,56.2545)">
        <g id="f4">
            <g>
                <rect x="50.261" y="10.112" width="11.133" height="80.045" style="fill:rgb(128,128,128);"/>
                <path d="M61.394,90.157L50.261,90.157L50.261,10.112L61.394,10.112L61.394,90.157ZM51.374,12.78L51.374,87.489L60.281,87.489L60.281,12.78L51.374,12.78Z"/>
            </g>
        </g>
    </g>
    <g transform="matrix(0.898199,0,0,0.499722,404.856,44.9912)">
        <g id="f41" serif:id="f4">
            <g>
                <rect x="50.261" y="10.112" width="11.133" height="80.045" style="fill:rgb(128,128,128);"/>
                <path d="M61.394,90.157L50.261,90.157L50.261,10.112L61.394,10.112L61.394,90.157ZM51.374,12.113L51.374,88.156L60.281,88.156L60.281,12.113L51.374,12.113Z"/>
            </g>
        </g>
    </g>
    <g transform="matrix(0.898199,0,0,0.624652,504.856,33.7279)">
        <g id="f5">
            <g>
                <rect x="50.261" y="10.112" width="11.133" height="80.045" style="fill:rgb(128,128,128);"/>
                <path d="M61.394,90.157L50.261,90.157L50.261,10.112L61.394,10.112L61.394,90.157ZM51.374,11.713L51.374,88.556L60.281,88.556L60.281,11.713L51.374,11.713Z"/>
            </g>
        </g>
    </g>
    <g transform="matrix(0.898199,0,0,0.749583,604.856,22.4646)">
        <g id="f6">
            <g>
                <rect x="50.261" y="10.112" width="11.133" height="80.045" style="fill:rgb(128,128,128);"/>
                <path d="M61.394,90.157L50.261,90.157L50.261,10.112L61.394,10.112L61.394,90.157ZM51.374,88.823L60.281,88.823L60.281,11.446L51.374,11.446L51.374,88.823Z"/>
            </g>
        </g>
    </g>
    <g transform="matrix(0.898199,0,0,0.874513,704.856,11.2013)">
        <g id="f7">
            <g>
                <rect x="50.261" y="10.112" width="11.133" height="80.045" style="fill:rgb(128,128,128);"/>
                <path d="M61.394,90.157L50.261,90.157L50.261,10.112L61.394,10.112L61.394,90.157ZM51.374,11.256L51.374,89.013L60.281,89.013L60.281,11.256L51.374,11.256Z"/>
            </g>
        </g>
    </g>
    <g transform="matrix(0.898199,0,0,0.999444,804.856,-0.0620698)">
        <g id="f8">
            <g>
                <rect x="50.261" y="10.112" width="11.133" height="80.045" style="fill:rgb(128,128,128);"/>
                <path d="M61.394,90.157L50.261,90.157L50.261,10.112L61.394,10.112L61.394,90.157ZM51.374,11.113L51.374,89.156L60.281,89.156L60.281,11.113L51.374,11.113Z"/>
            </g>
        </g>
    </g>
    <g id="f9" transform="matrix(1,0,0,3.42857,900.022,-218.68)">
        <g transform="matrix(0.898199,0,0,0.291504,4.8558,63.7634)">
            <rect x="50.261" y="10.112" width="11.133" height="80.045" style="fill:rgb(128,128,128);"/>
            <path d="M61.394,90.157L50.261,90.157L50.261,10.112L61.394,10.112L61.394,90.157ZM51.374,11.113L51.374,89.156L60.281,89.156L60.281,11.113L51.374,11.113Z"/>
        </g>
        <g transform="matrix(0.898199,0,-0.0602425,0.0360253,5.46499,66.3339)">
            <rect x="50.261" y="10.112" width="11.133" height="80.045" style="fill:rgb(128,128,128);"/>
            <path d="M61.394,90.157L50.261,90.157L50.261,10.112L61.394,10.112L61.394,90.157ZM51.5,18.208L51.5,82.061L60.156,82.061L60.156,18.208L51.5,18.208Z"/>
        </g>
    </g>
    <g id="f10" transform="matrix(1,0,0,3.42857,999.955,-218.68)">
        <g transform="matrix(0.898199,0,0,0.291504,4.8558,63.7634)">
            <rect x="50.261" y="10.112" width="11.133" height="80.045" style="fill:rgb(128,128,128);"/>
            <path d="M61.394,90.157L50.261,90.157L50.261,10.112L61.394,10.112L61.394,90.157ZM51.374,11.113L51.374,89.156L60.281,89.156L60.281,11.113L51.374,11.113Z"/>
        </g>
        <g transform="matrix(0.898199,0,-0.121865,0.0728761,6.08813,65.9613)">
            <rect x="50.261" y="10.112" width="11.133" height="80.045" style="fill:rgb(128,128,128);"/>
            <path d="M61.394,90.157L50.261,90.157L50.261,10.112L61.394,10.112L61.394,90.157ZM51.499,14.114L51.5,86.154L60.155,86.154L60.155,14.114L51.499,14.114Z"/>
        </g>
    </g>
</svg>
